<svg width="26" height="18" viewBox="0 0 26 18" fill="none" xmlns="http://www.w3.org/2000/svg">
<g clip-path="url(#clip0_427_2389)">
<path d="M0.492188 0.969238H25.9922V17.9692H0.492188V0.969238Z" fill="white"/>
<path d="M0.492188 0.968994H25.9922V2.2763H0.492188V0.968994ZM0.492188 3.58361H25.9922V4.89092H0.492188V3.58361ZM0.492188 6.19823H25.9922V7.50554H0.492188V6.19823ZM0.492188 8.81285H25.9922V10.1202H0.492188V8.81285ZM0.492188 11.4324H25.9922V12.7398H0.492188V11.4324ZM0.492188 14.0471H25.9922V15.3544H0.492188V14.0471ZM0.492188 16.6617H25.9922V17.969H0.492188V16.6617Z" fill="#D80027"/>
<path d="M0.492188 0.969238H13.2422V10.1204H0.492188V0.969238Z" fill="#2E52B2"/>
<path d="M2.86763 7.87314L2.6688 7.23688L2.45009 7.87314H1.79395L2.32582 8.25589L2.12699 8.89215L2.6688 8.49946L3.1957 8.89215L2.9919 8.25589L3.53371 7.87314H2.86763ZM5.66617 7.87314L5.46237 7.23688L5.25359 7.87314H4.59745L5.12933 8.25589L4.9305 8.89215L5.46237 8.49946L5.99921 8.89215L5.80038 8.25589L6.33225 7.87314H5.66617ZM8.47465 7.87314L8.2609 7.23688L8.06207 7.87314H7.39102L7.93781 8.25589L7.72903 8.89215L8.2609 8.49946L8.80769 8.89215L8.59892 8.25589L9.13079 7.87314H8.47465ZM11.2682 7.87314L11.0694 7.23688L10.8606 7.87314H10.1995L10.7363 8.25589L10.5375 8.89215L11.0694 8.49946L11.6062 8.89215L11.3925 8.25589L11.9393 7.87314H11.2682ZM5.46237 4.71174L5.25359 5.348H4.59745L5.12933 5.74069L4.9305 6.367L5.46237 5.97928L5.99921 6.367L5.80038 5.74069L6.33225 5.348H5.66617L5.46237 4.71174ZM2.6688 4.71174L2.45009 5.348H1.79395L2.32582 5.74069L2.12699 6.367L2.6688 5.97928L3.1957 6.367L2.9919 5.74069L3.53371 5.348H2.86763L2.6688 4.71174ZM8.2609 4.71174L8.06207 5.348H7.39102L7.93781 5.74069L7.72903 6.367L8.2609 5.97928L8.80769 6.367L8.59892 5.74069L9.13079 5.348H8.47465L8.2609 4.71174ZM11.0694 4.71174L10.8606 5.348H10.1995L10.7363 5.74069L10.5375 6.367L11.0694 5.97928L11.6062 6.367L11.3925 5.74069L11.9393 5.348H11.2682L11.0694 4.71174ZM2.6688 2.19653L2.45009 2.82285H1.79395L2.32582 3.21554L2.12699 3.84683L2.6688 3.45414L3.1957 3.84683L2.9919 3.21554L3.53371 2.82285H2.86763L2.6688 2.19653ZM5.46237 2.19653L5.25359 2.82285H4.59745L5.12933 3.21554L4.9305 3.84683L5.46237 3.45414L5.99921 3.84683L5.80038 3.21554L6.33225 2.82285H5.66617L5.46237 2.19653ZM8.2609 2.19653L8.06207 2.82285H7.39102L7.93781 3.21554L7.72903 3.84683L8.2609 3.45414L8.80769 3.84683L8.59892 3.21554L9.13079 2.82285H8.47465L8.2609 2.19653ZM11.0694 2.19653L10.8606 2.82285H10.1995L10.7363 3.21554L10.5375 3.84683L11.0694 3.45414L11.6062 3.84683L11.3925 3.21554L11.9393 2.82285H11.2682L11.0694 2.19653Z" fill="white"/>
</g>
<defs>
<clipPath id="clip0_427_2389">
<rect x="0.492188" y="0.968994" width="25.5" height="17" rx="2" fill="white"/>
</clipPath>
</defs>
</svg>
