<svg width="26" height="18" viewBox="0 0 26 18" fill="none" xmlns="http://www.w3.org/2000/svg">
<g clip-path="url(#clip0_413_2389)">
<path d="M1.35254 0.968994H25.1327V17.969H1.35254V0.968994Z" fill="#181A93"/>
<path d="M0.492188 0.96875H25.9922V6.63542H0.492188V0.96875Z" fill="#FFA44A"/>
<path d="M0.492188 12.3022H25.9922V17.9689H0.492188V12.3022Z" fill="#1A9F0B"/>
<path d="M0.492188 6.6355H25.9922V12.3022H0.492188V6.6355Z" fill="white"/>
<path d="M13.242 11.169C14.1809 11.169 14.942 10.4079 14.942 9.46904C14.942 8.53016 14.1809 7.76904 13.242 7.76904C12.3031 7.76904 11.542 8.53016 11.542 9.46904C11.542 10.4079 12.3031 11.169 13.242 11.169Z" fill="white"/>
<path d="M13.2423 11.7357C11.9946 11.7357 10.9756 10.7167 10.9756 9.46906C10.9756 8.2214 11.9946 7.20239 13.2423 7.20239C14.4899 7.20239 15.5089 8.2214 15.5089 9.46906C15.5089 10.7167 14.4899 11.7357 13.2423 11.7357ZM13.2423 11.1691C14.1469 11.1691 14.9423 10.3737 14.9423 9.46906C14.9423 8.56438 14.1519 7.76906 13.2423 7.76906C12.3326 7.76906 11.5423 8.56438 11.5423 9.46906C11.5423 10.3737 12.3376 11.1691 13.2423 11.1691Z" fill="#181A93"/>
<path d="M13.2427 10.6021C13.8686 10.6021 14.376 10.0947 14.376 9.46878C14.376 8.84286 13.8686 8.33545 13.2427 8.33545C12.6168 8.33545 12.1094 8.84286 12.1094 9.46878C12.1094 10.0947 12.6168 10.6021 13.2427 10.6021Z" fill="#181A93"/>
</g>
<defs>
<clipPath id="clip0_413_2389">
<rect x="0.492188" y="0.968994" width="25.5" height="17" rx="2" fill="white"/>
</clipPath>
</defs>
</svg>
