<svg width="86" height="25" viewBox="0 0 86 25" fill="none" xmlns="http://www.w3.org/2000/svg">
<path d="M15.6288 19.5864H6.45255L4.83131 24.4689H0L8.43047 0.468994H13.6509L22.0489 24.4689H17.2176L15.6288 19.5864ZM14.3967 15.9073L11.0245 5.66095L7.65228 15.9073H14.3967Z" fill="#E12629"/>
<path d="M45.2915 4.37183V24.2182H40.5282V20.2059C40.0327 21.5433 39.2106 22.5942 38.062 23.3584C36.9359 24.0988 35.6297 24.4689 34.1432 24.4689C31.9811 24.4689 30.2582 23.7166 28.9744 22.212C27.6907 20.7074 27.0488 18.6058 27.0488 15.9071V4.37183H31.7784V15.3339C31.7784 16.9101 32.1613 18.1401 32.927 19.0237C33.6928 19.8835 34.7288 20.3134 36.0351 20.3134C37.4089 20.3134 38.5012 19.8477 39.312 18.9163C40.1228 17.9848 40.5282 16.6474 40.5282 14.904V4.37183H45.2915Z" fill="#E12629"/>
<path d="M54.9749 8.69073C55.6613 7.44633 56.5691 6.47194 57.6983 5.76757C58.8276 5.03971 60.0896 4.67578 61.4846 4.67578V9.99383H60.1228C56.6909 9.99383 54.9749 11.6843 54.9749 15.0653V24.4688H50.292V4.95753H54.9749V8.69073Z" fill="#E12629"/>
<path d="M74.5695 4.59204C76.1096 4.59204 77.4296 4.97698 78.5296 5.74685C79.6296 6.51673 80.4106 7.55489 80.8726 8.86135V4.837H85.4927V24.2239H80.8726V20.1645C80.4106 21.471 79.6296 22.5208 78.5296 23.314C77.4296 24.0839 76.1096 24.4688 74.5695 24.4688C73.0295 24.4688 71.6435 24.0722 70.4114 23.279C69.1794 22.4858 68.2114 21.3427 67.5074 19.8496C66.8254 18.3331 66.4844 16.5601 66.4844 14.5304C66.4844 12.5008 66.8254 10.7394 67.5074 9.24628C68.2114 7.72987 69.1794 6.57505 70.4114 5.78185C71.6435 4.98864 73.0295 4.59204 74.5695 4.59204ZM76.0216 8.89634C74.5695 8.89634 73.4035 9.39793 72.5235 10.4011C71.6435 11.4043 71.2035 12.7807 71.2035 14.5304C71.2035 16.2801 71.6435 17.6566 72.5235 18.6598C73.4035 19.6396 74.5695 20.1295 76.0216 20.1295C77.4296 20.1295 78.5846 19.6279 79.4866 18.6248C80.4106 17.5983 80.8726 16.2335 80.8726 14.5304C80.8726 12.804 80.4106 11.4393 79.4866 10.4361C78.5846 9.40959 77.4296 8.89634 76.0216 8.89634Z" fill="#E12629"/>
</svg>
